# xmcd
#
# Track frame offsets: 
#        150
#        11706
#        23582
#        34257
#        47686
#        61952
#        73891
#        84481
#        98597
#        112572
#        125768
#        141164
#        159385
#        173314
#        182953
#        195009
#        207269
#        235770
#        268336
#        278235
#        292960
#        301868
#
# Disc length: 4263 seconds
#
# Revision: 0
# Processed by: cddbd v1.5.2PL0 Copyright (c) Steve Scherf et al.
# Submitted via: ExactAudioCopyFreeDBPlugin 1.0
#
DISCID=2610a516
DTITLE=Buddy Guy - The Blues
DYEAR=2013
DGENRE=Blues
TTITLE0=Baby Don't You Wanna Come Home
TTITLE1=Try To Quite You Baby
TTITLE2=First Time I Met The Blues
TTITLE3=This Is The End
TTITLE4=Broken Hearted Blues
TTITLE5=Ten Years Ago
TTITLE6=I Got My Eyes On You
TTITLE7=Hully Gully
TTITLE8=I Got A Strange Feeling
TTITLE9=Let Me Love You Baby
TTITLE10=Skippin'
TTITLE11=Watch Yourself
TTITLE12=Sit And Cry
TTITLE13=Slop Around
TTITLE14=You Sure Can't Do
TTITLE15=That's It
TTITLE16=I Found A True Love
TTITLE17=Stone Crazy
TTITLE18=Baby Baby Baby
TTITLE19=The Way You Been Treating Me
TTITLE20=The Treasure Untold
TTITLE21=When My Left Eye Jumps
EXTD=
EXTT0=
EXTT1=
EXTT2=
EXTT3=
EXTT4=
EXTT5=
EXTT6=
EXTT7=
EXTT8=
EXTT9=
EXTT10=
EXTT11=
EXTT12=
EXTT13=
EXTT14=
EXTT15=
EXTT16=
EXTT17=
EXTT18=
EXTT19=
EXTT20=
EXTT21=
PLAYORDER=
